> cdrecord -toc
Device was not specified. Trying to find an appropriate drive...
Detected CD-R drive: /dev/cdrw
Using /dev/cdrom of unknown capabilities
Device type    : Removable CD-ROM
Version        : 5
Response Format: 2
Capabilities   :
Vendor_info    : 'HL-DT-ST'
Identification : 'DVDRAM GSA-4040B'
Revision       : 'A300'
Device seems to be: Generic mmc2 DVD-R/DVD-RW.
Using generic SCSI-3/mmc   CD-R/CD-RW driver (mmc_cdr).
Driver flags   : MMC-3 SWABAUDIO BURNFREE
Supported modes: TAO PACKET SAO SAO/R96P SAO/R96R RAW/R16 RAW/R96P RAW/R96R
first: 1 last 13
track:   1 lba:         0 (        0) 00:02:00 adr: 1 control: 0 mode: 0
track:   2 lba:     20302 (    81208) 04:32:52 adr: 1 control: 0 mode: 0
track:   3 lba:     34390 (   137560) 07:40:40 adr: 1 control: 0 mode: 0
track:   4 lba:     48482 (   193928) 10:48:32 adr: 1 control: 0 mode: 0
track:   5 lba:     71465 (   285860) 15:54:65 adr: 1 control: 0 mode: 0
track:   6 lba:     86927 (   347708) 19:21:02 adr: 1 control: 0 mode: 0
track:   7 lba:    104385 (   417540) 23:13:60 adr: 1 control: 0 mode: 0
track:   8 lba:    117435 (   469740) 26:07:60 adr: 1 control: 0 mode: 0
track:   9 lba:    136540 (   546160) 30:22:40 adr: 1 control: 0 mode: 0
track:  10 lba:    156930 (   627720) 34:54:30 adr: 1 control: 0 mode: 0
track:  11 lba:    173155 (   692620) 38:30:55 adr: 1 control: 0 mode: 0
track:  12 lba:    186622 (   746488) 41:30:22 adr: 1 control: 0 mode: 0
track:  13 lba:    214675 (   858700) 47:44:25 adr: 1 control: 0 mode: 0
track:lout lba:    227925 (   911700) 50:41:00 adr: 1 control: 0 mode: -1
